<?xml version="1.0" encoding="iso-8859-1"?>
<!-- Generator: Adobe Illustrator 18.0.0, SVG Export Plug-In . SVG Version: 6.00 Build 0)  -->
<!DOCTYPE svg PUBLIC "-//W3C//DTD SVG 1.1//EN" "http://www.w3.org/Graphics/SVG/1.1/DTD/svg11.dtd">
<svg version="1.1" id="Capa_1" xmlns="http://www.w3.org/2000/svg" xmlns:xlink="http://www.w3.org/1999/xlink" x="0px" y="0px"
	 viewBox="0 0 466.287 466.287" style="enable-background:new 0 0 466.287 466.287;" xml:space="preserve" fill="#fff">
<path d="M451.287,48.634H51.957c-8.284,0-15,6.716-15,15v144.789H33.21c-18.313,0-33.21,14.898-33.21,33.21v142.809
	c0,18.313,14.897,33.21,33.21,33.21h261.991c18.313,0,33.21-14.898,33.21-33.21v-92.548h122.876c8.284,0,15-6.716,15-15V63.634
	C466.287,55.35,459.571,48.634,451.287,48.634z M436.287,107.741c-13.644-4.653-24.453-15.463-29.106-29.107h29.106V107.741z
	 M96.064,78.634c-4.653,13.644-15.463,24.453-29.107,29.107V78.634H96.064z M33.21,238.423h261.991c1.77,0,3.21,1.44,3.21,3.21
	v14.135H30v-14.135C30,239.863,31.44,238.423,33.21,238.423z M188.367,170.264c0-34.882,28.374-63.26,63.25-63.26
	c34.882,0,63.26,28.378,63.26,63.26c0,14.106-4.771,27.758-13.313,38.777c-2.061-0.401-4.187-0.618-6.363-0.618h-24.779
	c4.88-4.842,7.909-11.549,7.909-18.95c0-12.123-8.122-22.379-19.209-25.629v-21.768c2.57,2.149,4.209,5.376,4.209,8.98
	c0,4.142,3.357,7.5,7.5,7.5s7.5-3.358,7.5-7.5c0-12.123-8.122-22.379-19.209-25.629v-2.479c0-4.142-3.357-7.5-7.5-7.5
	s-7.5,3.358-7.5,7.5v2.479c-11.086,3.25-19.208,13.506-19.208,25.629s8.122,22.379,19.208,25.629v21.768
	c-2.569-2.15-4.208-5.376-4.208-8.98c0-4.142-3.357-7.5-7.5-7.5s-7.5,3.358-7.5,7.5c0,7.402,3.028,14.108,7.908,18.95h-31.653
	C192.862,197.511,188.367,184.284,188.367,170.264z M298.411,291.057H30v-15.289h268.411V291.057z M244.122,160.036
	c-2.569-2.15-4.208-5.376-4.208-8.98s1.639-6.83,4.208-8.98V160.036z M259.122,198.453v-17.96c2.57,2.149,4.209,5.376,4.209,8.98
	S261.692,196.303,259.122,198.453z M295.201,387.653H33.21c-1.77,0-3.21-1.44-3.21-3.21v-73.385h268.411v73.385
	C298.411,386.212,296.971,387.653,295.201,387.653z M319.264,218.78c10.052-14.037,15.613-31.016,15.613-48.516
	c0-45.91-37.351-83.26-83.26-83.26c-45.904,0-83.25,37.35-83.25,83.26c0,13.548,3.203,26.527,9.22,38.159H66.957v-79.915
	c24.695-5.709,44.165-25.179,49.874-49.873h269.583c5.709,24.694,25.179,44.164,49.873,49.873v83.513
	c-24.694,5.709-44.164,25.179-49.873,49.873h-58.003v-20.261C328.411,232.784,324.926,224.739,319.264,218.78z M407.181,261.894
	c4.653-13.644,15.462-24.453,29.106-29.106v29.106H407.181z"/>
<g>
</g>
<g>
</g>
<g>
</g>
<g>
</g>
<g>
</g>
<g>
</g>
<g>
</g>
<g>
</g>
<g>
</g>
<g>
</g>
<g>
</g>
<g>
</g>
<g>
</g>
<g>
</g>
<g>
</g>
</svg>
